<svg width="38" height="38" viewBox="0 0 38 38" fill="none" xmlns="http://www.w3.org/2000/svg">
<g clip-path="url(#clip0_620_3612)">
<g filter="url(#filter0_dd_620_3612)">
<path d="M27 2.09998H11C6.63693 2.09998 3.09998 5.63693 3.09998 9.99998V26C3.09998 30.363 6.63693 33.9 11 33.9H27C31.363 33.9 34.9 30.363 34.9 26V9.99998C34.9 5.63693 31.363 2.09998 27 2.09998Z" fill="white"/>
<path d="M22 13H20V23.3582H22V13Z" fill="black"/>
<path d="M18 13H16V23.3582H18V13Z" fill="black"/>
<path d="M27 2.09998H11C6.63693 2.09998 3.09998 5.63693 3.09998 9.99998V26C3.09998 30.363 6.63693 33.9 11 33.9H27C31.363 33.9 34.9 30.363 34.9 26V9.99998C34.9 5.63693 31.363 2.09998 27 2.09998Z" stroke="#D0D5DD" stroke-width="0.2"/>
</g>
</g>
<defs>
<filter id="filter0_dd_620_3612" x="0" y="0" width="38" height="38" filterUnits="userSpaceOnUse" color-interpolation-filters="sRGB">
<feFlood flood-opacity="0" result="BackgroundImageFix"/>
<feColorMatrix in="SourceAlpha" type="matrix" values="0 0 0 0 0 0 0 0 0 0 0 0 0 0 0 0 0 0 127 0" result="hardAlpha"/>
<feOffset dy="1"/>
<feGaussianBlur stdDeviation="1"/>
<feColorMatrix type="matrix" values="0 0 0 0 0.0627451 0 0 0 0 0.0941176 0 0 0 0 0.156863 0 0 0 0.06 0"/>
<feBlend mode="normal" in2="BackgroundImageFix" result="effect1_dropShadow_620_3612"/>
<feColorMatrix in="SourceAlpha" type="matrix" values="0 0 0 0 0 0 0 0 0 0 0 0 0 0 0 0 0 0 127 0" result="hardAlpha"/>
<feOffset dy="1"/>
<feGaussianBlur stdDeviation="1.5"/>
<feColorMatrix type="matrix" values="0 0 0 0 0.0627451 0 0 0 0 0.0941176 0 0 0 0 0.156863 0 0 0 0.1 0"/>
<feBlend mode="normal" in2="effect1_dropShadow_620_3612" result="effect2_dropShadow_620_3612"/>
<feBlend mode="normal" in="SourceGraphic" in2="effect2_dropShadow_620_3612" result="shape"/>
</filter>
<clipPath id="clip0_620_3612">
<rect width="38" height="38" fill="white"/>
</clipPath>
</defs>
</svg>
